<mxfile host="Electron" modified="2024-08-01T12:54:28.866Z" agent="Mozilla/5.0 (X11; Linux x86_64) AppleWebKit/537.36 (KHTML, like Gecko) draw.io/24.5.3 Chrome/124.0.6367.207 Electron/30.0.6 Safari/537.36" etag="Dw8GnEacJS0nt63kROq5" version="24.5.3" type="device">
  <diagram name="Page-1" id="5FysXKstwaxUqaZZPL2j">
    <mxGraphModel dx="1434" dy="843" grid="1" gridSize="10" guides="1" tooltips="1" connect="1" arrows="1" fold="1" page="1" pageScale="1" pageWidth="850" pageHeight="1100" math="0" shadow="0">
      <root>
        <mxCell id="0" />
        <mxCell id="1" parent="0" />
        <mxCell id="IfCjlWhsLqczehPYm-T0-4" value="" style="edgeStyle=orthogonalEdgeStyle;rounded=0;orthogonalLoop=1;jettySize=auto;html=1;" edge="1" parent="1" source="IfCjlWhsLqczehPYm-T0-1" target="IfCjlWhsLqczehPYm-T0-2">
          <mxGeometry relative="1" as="geometry" />
        </mxCell>
        <mxCell id="IfCjlWhsLqczehPYm-T0-1" value="Actor" style="shape=umlActor;verticalLabelPosition=bottom;verticalAlign=top;html=1;outlineConnect=0;" vertex="1" parent="1">
          <mxGeometry x="40" y="320" width="30" height="60" as="geometry" />
        </mxCell>
        <mxCell id="IfCjlWhsLqczehPYm-T0-5" value="" style="edgeStyle=orthogonalEdgeStyle;rounded=0;orthogonalLoop=1;jettySize=auto;html=1;" edge="1" parent="1" source="IfCjlWhsLqczehPYm-T0-6" target="IfCjlWhsLqczehPYm-T0-3">
          <mxGeometry relative="1" as="geometry" />
        </mxCell>
        <mxCell id="IfCjlWhsLqczehPYm-T0-2" value="Home" style="shape=umlBoundary;whiteSpace=wrap;html=1;" vertex="1" parent="1">
          <mxGeometry x="140" y="310" width="100" height="80" as="geometry" />
        </mxCell>
        <mxCell id="IfCjlWhsLqczehPYm-T0-12" value="" style="edgeStyle=orthogonalEdgeStyle;rounded=0;orthogonalLoop=1;jettySize=auto;html=1;" edge="1" parent="1" source="IfCjlWhsLqczehPYm-T0-3" target="IfCjlWhsLqczehPYm-T0-11">
          <mxGeometry relative="1" as="geometry" />
        </mxCell>
        <mxCell id="IfCjlWhsLqczehPYm-T0-15" value="" style="edgeStyle=orthogonalEdgeStyle;rounded=0;orthogonalLoop=1;jettySize=auto;html=1;" edge="1" parent="1" source="IfCjlWhsLqczehPYm-T0-3" target="IfCjlWhsLqczehPYm-T0-14">
          <mxGeometry relative="1" as="geometry" />
        </mxCell>
        <mxCell id="IfCjlWhsLqczehPYm-T0-3" value="LogIn" style="ellipse;shape=umlControl;whiteSpace=wrap;html=1;" vertex="1" parent="1">
          <mxGeometry x="460" y="310" width="70" height="80" as="geometry" />
        </mxCell>
        <mxCell id="IfCjlWhsLqczehPYm-T0-9" value="" style="edgeStyle=orthogonalEdgeStyle;rounded=0;orthogonalLoop=1;jettySize=auto;html=1;" edge="1" parent="1" source="IfCjlWhsLqczehPYm-T0-2" target="IfCjlWhsLqczehPYm-T0-6">
          <mxGeometry relative="1" as="geometry">
            <mxPoint x="240" y="350" as="sourcePoint" />
            <mxPoint x="515" y="290" as="targetPoint" />
          </mxGeometry>
        </mxCell>
        <mxCell id="IfCjlWhsLqczehPYm-T0-6" value="Administration" style="html=1;whiteSpace=wrap;" vertex="1" parent="1">
          <mxGeometry x="290" y="325" width="110" height="50" as="geometry" />
        </mxCell>
        <mxCell id="IfCjlWhsLqczehPYm-T0-13" style="edgeStyle=orthogonalEdgeStyle;rounded=0;orthogonalLoop=1;jettySize=auto;html=1;" edge="1" parent="1" source="IfCjlWhsLqczehPYm-T0-11" target="IfCjlWhsLqczehPYm-T0-2">
          <mxGeometry relative="1" as="geometry" />
        </mxCell>
        <mxCell id="IfCjlWhsLqczehPYm-T0-11" value="No" style="ellipse;whiteSpace=wrap;html=1;" vertex="1" parent="1">
          <mxGeometry x="455" y="240" width="80" height="40" as="geometry" />
        </mxCell>
        <mxCell id="IfCjlWhsLqczehPYm-T0-14" value="Administration&lt;div&gt;Page&lt;/div&gt;" style="shape=umlBoundary;whiteSpace=wrap;html=1;" vertex="1" parent="1">
          <mxGeometry x="590" y="310" width="100" height="80" as="geometry" />
        </mxCell>
        <mxCell id="IfCjlWhsLqczehPYm-T0-17" value="" style="edgeStyle=orthogonalEdgeStyle;rounded=0;orthogonalLoop=1;jettySize=auto;html=1;" edge="1" parent="1" source="IfCjlWhsLqczehPYm-T0-14" target="IfCjlWhsLqczehPYm-T0-16">
          <mxGeometry relative="1" as="geometry" />
        </mxCell>
        <mxCell id="IfCjlWhsLqczehPYm-T0-19" value="" style="edgeStyle=orthogonalEdgeStyle;rounded=0;orthogonalLoop=1;jettySize=auto;html=1;" edge="1" parent="1" source="IfCjlWhsLqczehPYm-T0-16" target="IfCjlWhsLqczehPYm-T0-18">
          <mxGeometry relative="1" as="geometry" />
        </mxCell>
        <mxCell id="IfCjlWhsLqczehPYm-T0-16" value="Load Start&lt;div&gt;xlsx&lt;/div&gt;" style="ellipse;shape=umlControl;whiteSpace=wrap;html=1;" vertex="1" parent="1">
          <mxGeometry x="760" y="310" width="70" height="80" as="geometry" />
        </mxCell>
        <mxCell id="IfCjlWhsLqczehPYm-T0-21" value="" style="edgeStyle=orthogonalEdgeStyle;rounded=0;orthogonalLoop=1;jettySize=auto;html=1;" edge="1" parent="1" source="IfCjlWhsLqczehPYm-T0-18" target="IfCjlWhsLqczehPYm-T0-20">
          <mxGeometry relative="1" as="geometry" />
        </mxCell>
        <mxCell id="IfCjlWhsLqczehPYm-T0-18" value="Verifica file&lt;div&gt;is xlsx&lt;/div&gt;" style="ellipse;shape=umlControl;whiteSpace=wrap;html=1;" vertex="1" parent="1">
          <mxGeometry x="760" y="420" width="70" height="80" as="geometry" />
        </mxCell>
        <mxCell id="IfCjlWhsLqczehPYm-T0-25" value="" style="edgeStyle=orthogonalEdgeStyle;rounded=0;orthogonalLoop=1;jettySize=auto;html=1;" edge="1" parent="1" source="IfCjlWhsLqczehPYm-T0-20" target="IfCjlWhsLqczehPYm-T0-24">
          <mxGeometry relative="1" as="geometry" />
        </mxCell>
        <mxCell id="IfCjlWhsLqczehPYm-T0-31" value="" style="edgeStyle=orthogonalEdgeStyle;rounded=0;orthogonalLoop=1;jettySize=auto;html=1;" edge="1" parent="1" source="IfCjlWhsLqczehPYm-T0-20" target="IfCjlWhsLqczehPYm-T0-26">
          <mxGeometry relative="1" as="geometry" />
        </mxCell>
        <mxCell id="IfCjlWhsLqczehPYm-T0-20" value="Lee y limpia la data" style="ellipse;shape=umlControl;whiteSpace=wrap;html=1;" vertex="1" parent="1">
          <mxGeometry x="760" y="540" width="70" height="80" as="geometry" />
        </mxCell>
        <mxCell id="IfCjlWhsLqczehPYm-T0-29" value="" style="edgeStyle=orthogonalEdgeStyle;rounded=0;orthogonalLoop=1;jettySize=auto;html=1;" edge="1" parent="1" source="IfCjlWhsLqczehPYm-T0-24" target="IfCjlWhsLqczehPYm-T0-28">
          <mxGeometry relative="1" as="geometry" />
        </mxCell>
        <mxCell id="IfCjlWhsLqczehPYm-T0-32" value="" style="edgeStyle=orthogonalEdgeStyle;rounded=0;orthogonalLoop=1;jettySize=auto;html=1;" edge="1" parent="1" source="IfCjlWhsLqczehPYm-T0-24" target="IfCjlWhsLqczehPYm-T0-30">
          <mxGeometry relative="1" as="geometry" />
        </mxCell>
        <mxCell id="IfCjlWhsLqczehPYm-T0-24" value="Crea Hash" style="ellipse;shape=umlControl;whiteSpace=wrap;html=1;" vertex="1" parent="1">
          <mxGeometry x="760" y="660" width="70" height="80" as="geometry" />
        </mxCell>
        <mxCell id="IfCjlWhsLqczehPYm-T0-26" value="Configura Fechas" style="ellipse;shape=umlControl;whiteSpace=wrap;html=1;" vertex="1" parent="1">
          <mxGeometry x="630" y="540" width="70" height="80" as="geometry" />
        </mxCell>
        <mxCell id="IfCjlWhsLqczehPYm-T0-28" value="Envia correos coordina" style="ellipse;shape=umlControl;whiteSpace=wrap;html=1;" vertex="1" parent="1">
          <mxGeometry x="760" y="780" width="70" height="80" as="geometry" />
        </mxCell>
        <mxCell id="IfCjlWhsLqczehPYm-T0-30" value="Guarda data eb DB" style="ellipse;shape=umlEntity;whiteSpace=wrap;html=1;" vertex="1" parent="1">
          <mxGeometry x="620" y="660" width="80" height="80" as="geometry" />
        </mxCell>
      </root>
    </mxGraphModel>
  </diagram>
</mxfile>
